<?xml version="1.0" encoding="UTF-8" standalone="no"?>
<!-- Created with Inkscape (http://www.inkscape.org/) -->

<svg
   width="45mm"
   height="20mm"
   viewBox="0 0 45 20"
   version="1.1"
   id="svg1"
   sodipodi:docname="simodin_3.svg"
   inkscape:version="1.3.2 (091e20e, 2023-11-25, custom)"
   inkscape:export-filename="simodin_logo_v1_text.png"
   inkscape:export-xdpi="96"
   inkscape:export-ydpi="96"
   xmlns:inkscape="http://www.inkscape.org/namespaces/inkscape"
   xmlns:sodipodi="http://sodipodi.sourceforge.net/DTD/sodipodi-0.dtd"
   xmlns="http://www.w3.org/2000/svg"
   xmlns:svg="http://www.w3.org/2000/svg">
  <sodipodi:namedview
     id="namedview1"
     pagecolor="#ffffff"
     bordercolor="#000000"
     borderopacity="0.25"
     inkscape:showpageshadow="2"
     inkscape:pageopacity="0.0"
     inkscape:pagecheckerboard="0"
     inkscape:deskcolor="#d1d1d1"
     inkscape:document-units="mm"
     showguides="true"
     inkscape:zoom="11.313709"
     inkscape:cx="75.306872"
     inkscape:cy="43.354484"
     inkscape:window-width="2880"
     inkscape:window-height="1514"
     inkscape:window-x="3373"
     inkscape:window-y="-11"
     inkscape:window-maximized="1"
     inkscape:current-layer="layer1">
    <sodipodi:guide
       position="36.777081,-15.78489"
       orientation="1,0"
       id="guide1"
       inkscape:locked="false" />
    <sodipodi:guide
       position="26.855207,-11.485411"
       orientation="0,-1"
       id="guide2"
       inkscape:locked="false" />
  </sodipodi:namedview>
  <defs
     id="defs1" />
  <g
     inkscape:label="Ebene 1"
     inkscape:groupmode="layer"
     id="layer1">
    <path
       id="text3"
       style="font-style:normal;font-variant:normal;font-weight:normal;font-stretch:normal;font-size:14.1111px;font-family:osifont;-inkscape-font-specification:osifont;fill:#000000;stroke-width:0.264583"
       d="m 4.4725952,1.1249959 c -0.8727307,0 -1.6126702,0.3005487 -2.218986,0.9022705 C 1.6518874,2.6243952 1.3513387,3.3044358 1.3513387,4.0669352 v 4.5475261 c 0,0.7854564 0.31008,1.4766517 0.9301758,2.0737747 0.6109188,0.583358 1.3248945,0.875399 2.1425049,0.875399 0.2831735,0 0.5492684,-0.03734 0.8030517,-0.101802 -4.197e-4,-0.01376 -0.00119,-0.02757 -0.00155,-0.04134 -5.11e-4,-0.04673 -0.00524,-0.09359 -0.00982,-0.140044 -0.00481,-0.04874 -0.00176,-0.01868 -0.00723,-0.06563 -0.00799,-0.07433 -0.019624,-0.148182 -0.033073,-0.221692 -0.00959,-0.051 -0.01992,-0.101838 -0.03359,-0.151928 -0.00704,-0.0258 -0.015941,-0.05457 -0.023771,-0.0801 -0.011954,-0.0379 -0.022515,-0.07596 -0.033073,-0.114205 -0.014812,-0.01777 -0.031075,-0.0345 -0.047025,-0.05116 -0.03633,-0.03518 -0.069299,-0.07366 -0.1043864,-0.110071 -0.1673539,0.0368 -0.3451592,0.05788 -0.5369181,0.05788 -0.4960845,0 -0.9439631,-0.176514 -1.3435873,-0.5302 C 2.593689,9.5998797 2.3641968,9.145159 2.3641968,8.6490845 V 4.2322998 c 0,-0.6660281 0.2295203,-1.1849477 0.6888468,-1.5570109 0.4363712,-0.3536782 0.8821258,-0.530717 1.3368693,-0.530717 0.5420085,0 1.0285978,0.1743844 1.460376,0.5234823 0.4822935,0.3904262 0.7234701,0.921002 0.7234701,1.5916341 v 2.1771281 c 0.073968,2.929e-4 0.1477061,7.39e-4 0.2216918,0 0.095933,-9.6e-4 0.2058187,-0.00451 0.3017904,-0.00723 0.1586324,-0.00518 0.3172197,-0.010057 0.47594,-0.014469 V 4.2116292 C 7.5731804,3.3802395 7.2562106,2.6498313 6.6223348,2.0205485 6.0206021,1.4234197 5.3039866,1.1249959 4.4725952,1.1249959 Z m 1.9688721,8.0387858 c -0.09206,0.2410956 -0.2318801,0.4680543 -0.4216797,0.6800619 0.04427,0.03566 0.08833,0.07144 0.1322917,0.107487 0.01212,0.0094 0.02451,0.019122 0.03669,0.028422 0.01242,0.0095 0.024527,0.019222 0.037207,0.028422 0.03107,0.02249 0.048528,0.0298 0.078548,0.05891 0.05194,0.05036 0.06137,0.06942 0.1018026,0.127124 0.01403,0.02317 0.029278,0.04526 0.041858,0.06925 0.03361,0.06407 0.055528,0.121833 0.080099,0.189653 0.03026,0.08352 0.055692,0.16823 0.081132,0.253214 0.0065,-0.0062 0.013187,-0.01184 0.019637,-0.01809 C 6.8501653,10.47359 7.0307727,10.240103 7.1737223,9.9895711 7.1454438,9.9647332 7.1176816,9.93928 7.0905233,9.91309 6.999505,9.8262817 6.9707156,9.8009426 6.8822673,9.7063843 6.72292,9.5360428 6.5785129,9.3523903 6.4414673,9.1637817 Z" />
    <path
       id="text4"
       style="font-style:normal;font-variant:normal;font-weight:normal;font-stretch:normal;font-size:14.1111px;font-family:osifont;-inkscape-font-specification:osifont;fill:#000000;stroke-width:0.264583"
       d="m 4.4725952,8.2449748 c -0.3303832,0 -0.6395697,0.048116 -0.9312093,0.135909 0.041919,0.080623 0.083042,0.1619857 0.1235067,0.243396 0.074258,0.1460376 0.1340272,0.2983747 0.1953369,0.4501017 0.032403,0.082789 0.064747,0.1655745 0.096635,0.2485636 0.1434187,-0.037347 0.2876703,-0.057878 0.4330485,-0.057878 0.5420045,0 1.0285954,0.1744015 1.460376,0.5234823 0.4822897,0.3904432 0.7234701,0.9210182 0.7234701,1.5916342 v 4.189408 c 0,0.610911 -0.2549438,1.145735 -0.7648112,1.60507 -0.3628617,0.326118 -0.8335655,0.489376 -1.4123169,0.489376 -0.4960875,0 -0.9439607,-0.177039 -1.3435873,-0.530717 C 2.5937213,16.71992 2.3641968,16.265138 2.3641968,15.769063 v -2.338358 c -0.080499,-0.0071 -0.1611771,-0.01354 -0.2418457,-0.01912 -0.2567179,-0.02078 -0.5138386,-0.03687 -0.7710124,-0.05116 v 2.375049 c 0,0.78547 0.3100834,1.476627 0.9301758,2.073775 0.6109224,0.58334 1.3248967,0.874882 2.1425049,0.874882 0.8681361,0 1.6033149,-0.291542 2.2050333,-0.874882 0.6292964,-0.61093 0.9441285,-1.366758 0.9441285,-2.267045 v -4.209562 c 0,-0.831399 -0.316974,-1.5618026 -0.9508464,-2.1910811 C 6.0205987,8.5442919 5.3039844,8.2454915 4.4725952,8.2454915 Z M 2.894397,8.6583862 c -4.57e-4,2.674e-4 -0.00109,2.491e-4 -0.00155,5.168e-4 0.00411,0.00587 0.0084,0.011633 0.012402,0.01757 -0.00227,-0.00384 -0.00764,-0.012359 -0.00827,-0.013436 -8.543e-4,-0.00147 -0.00172,-0.00317 -0.00258,-0.00465 z m 0.1043864,0.1653646 c 0.00261,0.00429 0.00515,0.00862 0.00775,0.012919 -2.548e-4,-8.872e-4 -7.893e-4,-0.0017 -0.00103,-0.00258 -0.00231,-0.00339 -0.00441,-0.00695 -0.00672,-0.010335 z m -0.664559,0.2475301 c -0.02699,0.02514 -0.054125,0.050201 -0.080615,0.076481 -0.03311,0.03285 -0.064055,0.066316 -0.095085,0.099736 0.01052,0.005 0.020839,0.0097 0.032039,0.014986 0.0047,-6.48e-4 0.0093,-0.00147 0.013953,-0.00207 0.04896,-0.0061 0.09795,-0.013986 0.1472778,-0.014986 0.0211,-4.39e-4 0.036923,1.78e-5 0.053743,5.168e-4 -0.003,-0.0069 -0.0063,-0.013721 -0.0093,-0.020671 -0.004,-0.0097 -0.04821,-0.1174111 -0.05271,-0.1291911 -8.55e-4,-0.0022 -0.006,-0.016085 -0.0093,-0.024805 z m 0.00258,0.4108277 c -0.02191,0.0018 -0.043789,0.00392 -0.065629,0.00672 0.01663,0.01834 0.033016,0.036797 0.050126,0.054777 0.04522,0.04753 0.0605,0.06076 0.1064535,0.1043864 0.03693,0.03401 0.076499,0.065084 0.1178223,0.093534 0.02157,0.01486 0.037018,0.02546 0.059428,0.038241 0.008,0.0046 0.016605,0.0085 0.024805,0.012919 0.02939,0.0142 0.058754,0.028224 0.088884,0.040824 -0.01773,-0.02835 -0.035907,-0.056656 -0.053227,-0.085266 -0.01508,-0.02582 -0.030505,-0.051108 -0.045475,-0.076998 -0.01201,-0.01064 -0.023693,-0.021416 -0.034623,-0.031006 -0.02281,-0.01712 -0.058836,-0.044145 -0.082166,-0.059945 -0.01454,-0.0099 -0.029482,-0.019222 -0.044442,-0.028422 -0.02783,-0.01712 -0.073491,-0.043541 -0.1018025,-0.058911 -0.0067,-0.0036 -0.013404,-0.0073 -0.020154,-0.010852 z m -0.223759,0.028939 c -0.01672,0.0028 -0.033486,0.00558 -0.050126,0.00878 0.01481,0.02788 0.029393,0.05637 0.053743,0.1069702 0.03581,0.07439 0.07607,0.1645762 0.1080037,0.2408121 0.01605,0.03834 0.030969,0.077209 0.046509,0.1157553 0.03624,0.09281 0.07063,0.18623 0.1054199,0.279569 0.0377,0.101196 0.009,0.02341 0.038241,0.10387 0.04452,0.12257 -0.079521,0.167489 -0.1240235,0.04496 -0.0283,-0.07803 -7.786e-4,-0.0023 -0.038241,-0.102837 -0.03436,-0.09218 -0.067601,-0.184829 -0.1033529,-0.276468 -0.0151,-0.0375 -0.029875,-0.075351 -0.045475,-0.1126551 -0.03098,-0.07405 -0.07017,-0.1618153 -0.1049032,-0.2340942 -0.03122,-0.06496 -0.047296,-0.09597 -0.067696,-0.1333252 -0.01108,0.0032 -0.02259,0.00477 -0.03359,0.00827 -0.02606,0.03536 -0.048694,0.07159 -0.072864,0.107487 0.0097,0.01692 0.019282,0.03404 0.028422,0.05116 0.03161,0.05916 0.067622,0.1330931 0.097152,0.1927531 0.03305,0.06789 0.065162,0.1344345 0.098702,0.2020545 0.02331,0.04701 0.06084,0.121466 0.0863,0.168465 0.01111,0.02053 0.023153,0.04065 0.034623,0.06098 0.0027,0.0048 0.00505,0.0097 0.00775,0.01447 6.81e-4,10e-4 0.00137,0.0021 0.00207,0.0031 0.01911,0.02913 0.037864,0.05864 0.056844,0.08785 0.0081,0.0125 0.016288,0.02462 0.024288,0.03721 0.01047,0.01651 0.026923,0.04209 0.034623,0.06098 0.0034,0.0085 0.00557,0.01758 0.00827,0.02636 0.02961,0.0099 0.05997,0.01827 0.0894,0.02842 0.02748,0.01016 0.054649,0.02131 0.081649,0.03256 0.07709,-0.235201 0.1958856,-0.443692 0.3565674,-0.625285 -3.46e-4,-5.17e-4 -0.00103,-5.87e-4 -0.00103,-0.0021 -0.0065,-0.0016 -0.013227,-0.0034 -0.018087,-0.0047 -0.0295,-0.0074 -0.05923,-0.014891 -0.08785,-0.025321 -0.01091,-0.0042 -0.042877,-0.015854 -0.053227,-0.020154 -0.0354,-0.01459 -0.07003,-0.031219 -0.1043864,-0.048059 -0.01009,-0.0055 -0.020072,-0.010836 -0.029972,-0.016537 -0.02453,-0.01413 -0.044326,-0.027198 -0.067696,-0.043408 -0.04635,-0.03215 -0.09083,-0.06711 -0.1322916,-0.1054199 -0.0494,-0.04699 -0.06397,-0.05942 -0.1126547,-0.1105876 -0.02125,-0.02233 -0.041699,-0.045503 -0.062528,-0.068213 -0.01635,-0.01781 -0.032346,-0.035874 -0.048576,-0.053743 z m 0.7482748,0.2299601 c -1.329e-4,6.827e-4 -3.973e-4,0.00118 -5.168e-4,0.00207 0.0011,0.0015 0.002,0.00357 0.0031,0.00517 -2.63e-4,-10e-4 -0.00158,-0.00453 -0.00258,-0.00723 z m 0.050126,0.080615 c 1.06e-4,1.75e-4 4.018e-4,0.00103 5.168e-4,0.00103 3.1e-5,-3.419e-4 -3e-5,-0.00103 0,-0.00103 z" />
    <path
       d="m 10.35228,11.92216 v 6.146045 q 0,0.571886 -0.4960934,0.571886 -0.5167639,0 -0.5167639,-0.558105 V 11.92905 q 0,-0.564995 0.5098737,-0.564995 0.5029836,0 0.5029836,0.558105 z M 9.3600933,8.7182232 q 0,-0.482313 0.4754228,-0.482313 0.5098739,0 0.5098739,0.5167639 v 0.4478621 q 0,0.5374345 -0.5236543,0.5374345 -0.4616424,0 -0.4616424,-0.5029836 z m 9.4257737,-0.186035 q 0.165365,-0.261827 0.440972,-0.261827 0.523654,0 0.523654,0.5512148 v 9.170837 q 0,0.682128 -0.509874,0.682128 -0.509873,0 -0.509873,-0.682128 v -7.393169 l -2.149738,3.500214 q -0.261827,0.434082 -0.523654,0.434082 -0.261827,0 -0.509874,-0.420301 l -2.108397,-3.500215 v 7.41384 q 0,0.647677 -0.530544,0.647677 -0.489203,0 -0.489203,-0.633897 V 8.8146858 q 0,-0.5443246 0.523654,-0.5443246 0.268717,0 0.427191,0.2411564 l 2.659612,4.4855114 z m 4.43039,4.2030128 q -0.551215,0.406521 -0.551215,1.260904 v 2.115287 q 0,0.778591 0.75792,1.254014 0.440972,0.275608 0.881944,0.275608 0.440972,0 0.888834,-0.303169 0.675238,-0.454752 0.675238,-1.440048 v -1.756998 q 0,-0.875053 -0.516764,-1.343586 -0.496093,-0.454752 -1.047308,-0.454752 -0.551215,0 -1.088649,0.39274 z m 0.964626,-1.384927 q 1.157551,0 1.887911,0.72347 0.771701,0.76481 0.771701,1.626083 v 2.397785 q 0,1.157551 -0.833713,1.887911 -0.723469,0.633897 -1.750107,0.633897 -1.09554,0 -1.743217,-0.661458 -0.833712,-0.847493 -0.833712,-1.894801 V 13.81007 q 0,-1.109319 0.957735,-1.88791 0.702799,-0.571886 1.543402,-0.571886 z m 6.621469,1.012857 q -1.192002,0 -1.192002,1.322916 0,0 0,2.714733 0,1.233343 1.267794,1.233343 0,0 1.922362,0 0,0 0,-5.270992 z m 1.998154,-3.5966765 q 0,-0.5305443 0.502983,-0.5305443 0.502984,0 0.502984,0.5649952 v 9.2259586 q 0,0.647677 -0.654568,0.647677 h -2.390894 q -0.895724,0 -1.453829,-0.558105 -0.675238,-0.675238 -0.675238,-1.48828 v -3.286618 q 0,-0.668348 0.475422,-1.247124 0.599447,-0.730359 1.688096,-0.730359 h 2.005044 z m 4.12033,9.2466295 q 0,0.661457 -0.523654,0.661457 -0.523654,0 -0.523654,-0.647677 V 8.8904779 q 0,-0.6201167 0.523654,-0.6201167 0.523654,0 0.523654,0.6407872 z m 1.929251,-6.146046 q 0,-0.516764 0.502984,-0.516764 0,0 2.652721,0 0.833712,0 1.508951,0.668348 0.509873,0.502984 0.509873,1.322916 0,0 0,4.623314 0,0.661458 -0.482313,0.661458 -0.523654,0 -0.523654,-0.675238 0,0 0,-4.526852 0,-0.502984 -0.268717,-0.74414 -0.323839,-0.303168 -0.709689,-0.303168 0,0 -2.21864,0 v 5.663732 q 0,0.578776 -0.482313,0.578776 -0.489203,0 -0.489203,-0.571885 z"
       id="text1"
       style="font-size:14.1111px;font-family:osifont;-inkscape-font-specification:osifont;stroke-width:0.001"
       aria-label="iModIn" />
    <path
       d="m 7.0676893,7.1369693 q -0.4936855,0 -0.4936855,-0.7014398 0,-0.70144 0.4607731,-0.70144 0.539763,0 0.539763,0.7473286 0,0.6555512 -0.5068506,0.6555512 z"
       id="text2"
       style="font-size:14.1111px;font-family:osifont;-inkscape-font-specification:osifont;stroke-width:0.000953382"
       aria-label="." />
    <path
       id="text2-8"
       style="font-size:14.1111px;font-family:osifont;-inkscape-font-specification:osifont;stroke-width:0.00096181"
       d="m 5.551879,10.440212 c -0.1326222,-0.04501 -0.3119551,-0.03698 -0.538062,0.0241 -0.036589,0.0099 -0.071234,0.02088 -0.1042219,0.03212 0.00348,0.01029 0.00678,0.02055 0.010276,0.03078 0.048678,0.148177 0.095595,0.296785 0.1367788,0.447323 0.030789,0.09595 0.050281,0.195023 0.078924,0.291554 0.02134,0.06668 0.035047,0.13581 0.055007,0.202934 0.01122,-0.0028 0.022484,-0.0055 0.033964,-0.0086 0.4817958,-0.130147 0.6765843,-0.372208 0.5848871,-0.726151 -0.039141,-0.15107 -0.1249282,-0.24909 -0.2575509,-0.294089 z" />
    <path
       d="m 1.8521984,14.085963 q -0.499873,0 -0.499873,-0.712293 0,-0.712292 0.4665482,-0.712292 0.5465281,0 0.5465281,0.758891 0,0.665694 -0.5132033,0.665694 z"
       id="text2-6"
       style="font-size:14.1111px;font-family:osifont;-inkscape-font-specification:osifont;stroke-width:0.00096673"
       aria-label="." />
    <path
       id="text2-8-5"
       style="font-size:14.1111px;font-family:osifont;-inkscape-font-specification:osifont;stroke-width:0.000965572"
       d="m 3.317539,9.3681685 c 0.1319013,0.047449 0.3113383,0.042185 0.5383735,-0.015795 0.036739,-0.0094 0.071552,-0.019918 0.1047124,-0.030724 -0.00332,-0.010421 -0.00646,-0.020816 -0.00979,-0.031181 C 3.9044798,9.1403821 3.8598953,8.9898871 3.8210735,8.8375379 3.7917908,8.7403618 3.7738523,8.6402168 3.7467242,8.5424892 3.7264309,8.4749579 3.7138081,8.4050783 3.6949014,8.3371215 c -0.011263,0.00264 -0.022567,0.00518 -0.034094,0.00813 -0.4837745,0.1235482 -0.6823291,0.364403 -0.5961852,0.7225238 0.036771,0.1528531 0.1210129,0.252983 0.2529147,0.3004221 z" />
  </g>
</svg>
