<?xml version="1.0" encoding="UTF-8" standalone="no"?>
<!-- Created with Inkscape (http://www.inkscape.org/) -->

<svg
   width="45mm"
   height="20mm"
   viewBox="0 0 45 20"
   version="1.1"
   id="svg1"
   sodipodi:docname="simodin.svg"
   inkscape:version="1.3.2 (091e20e, 2023-11-25, custom)"
   inkscape:export-filename="simodin_logo_v1_text.png"
   inkscape:export-xdpi="96"
   inkscape:export-ydpi="96"
   xmlns:inkscape="http://www.inkscape.org/namespaces/inkscape"
   xmlns:sodipodi="http://sodipodi.sourceforge.net/DTD/sodipodi-0.dtd"
   xmlns="http://www.w3.org/2000/svg"
   xmlns:svg="http://www.w3.org/2000/svg">
  <sodipodi:namedview
     id="namedview1"
     pagecolor="#ffffff"
     bordercolor="#000000"
     borderopacity="0.25"
     inkscape:showpageshadow="2"
     inkscape:pageopacity="0.0"
     inkscape:pagecheckerboard="0"
     inkscape:deskcolor="#d1d1d1"
     inkscape:document-units="mm"
     showguides="true"
     inkscape:zoom="4"
     inkscape:cx="198.5"
     inkscape:cy="87.125"
     inkscape:window-width="2880"
     inkscape:window-height="1514"
     inkscape:window-x="3373"
     inkscape:window-y="-11"
     inkscape:window-maximized="1"
     inkscape:current-layer="layer1">
    <sodipodi:guide
       position="36.777081,-15.78489"
       orientation="1,0"
       id="guide1"
       inkscape:locked="false" />
    <sodipodi:guide
       position="26.855207,-11.485411"
       orientation="0,-1"
       id="guide2"
       inkscape:locked="false" />
  </sodipodi:namedview>
  <defs
     id="defs1" />
  <g
     inkscape:label="Ebene 1"
     inkscape:groupmode="layer"
     id="layer1">
    <path
       id="text3"
       style="font-style:normal;font-variant:normal;font-weight:normal;font-stretch:normal;font-size:14.1111px;font-family:osifont;-inkscape-font-specification:osifont;fill:#000000;stroke-width:0.264583"
       d="m 4.4725356,1.1252268 c -0.872746,0 -1.61266,0.300539 -2.218986,0.902271 -0.601732,0.597139 -0.902271,1.277156 -0.902271,2.039669 v 4.547526 c 0,0.78547 0.31007,1.4766362 0.930176,2.0737762 0.610929,0.583358 1.324881,0.875399 2.142505,0.875399 0.667464,0 1.255254,-0.174906 1.765267,-0.519865 -0.01293,-0.05324 -0.02623,-0.106301 -0.04082,-0.159164 -0.0073,-0.02455 -0.02709,-0.09172 -0.03669,-0.118855 -0.02229,-0.06305 -0.05256,-0.123125 -0.08217,-0.182936 -0.03583,-0.07553 -0.06891,-0.152988 -0.123507,-0.217558 -0.06801,-0.0887 0.01893,0.02249 -0.07131,-0.08837 -0.0401,-0.04927 -0.07535,-0.102475 -0.118856,-0.148829 -0.349367,0.275152 -0.78774,0.415479 -1.319299,0.415479 -0.496093,0 -0.943957,-0.176514 -1.343588,-0.5302 C 2.5936516,9.6001588 2.3641396,9.1453948 2.3641396,8.6493118 v -4.416785 c 0,-0.66604 0.229512,-1.184941 0.688847,-1.557011 0.436378,-0.353685 0.882118,-0.530717 1.33687,-0.530717 0.542017,0 1.028591,0.17438 1.460376,0.523483 0.482302,0.390433 0.72347,0.92099 0.72347,1.591634 v 2.767273 c 0.05623,0.04745 0.112176,0.09493 0.168465,0.14211 0.254803,0.213576 0.132372,0.112257 0.393257,0.325561 0.146246,0.116655 0.29161,0.234188 0.4377,0.350883 v -3.633886 c 0,-0.831405 -0.31696,-1.561788 -0.950846,-2.191081 -0.601743,-0.597139 -1.318335,-0.895553 -2.14974,-0.895553 z m 1.968872,8.038786 c -0.09206,0.241099 -0.231877,0.4680512 -0.42168,0.6800622 0.04427,0.03566 0.08833,0.07144 0.132292,0.107487 0.01212,0.0094 0.02451,0.01912 0.03669,0.02842 0.01242,0.0095 0.02453,0.01922 0.03721,0.02842 0.03107,0.02249 0.04853,0.0298 0.07855,0.05891 0.05194,0.05036 0.06137,0.06942 0.101803,0.127124 0.01403,0.02317 0.02928,0.04526 0.04186,0.06925 0.03361,0.06407 0.05553,0.121832 0.0801,0.189652 0.03026,0.08352 0.05569,0.168232 0.08113,0.253216 0.0065,-0.0062 0.01319,-0.01184 0.01964,-0.01809 0.221119,-0.214663 0.401717,-0.448134 0.54467,-0.698666 -0.02828,-0.02484 -0.05604,-0.05029 -0.0832,-0.07648 -0.09102,-0.08681 -0.119806,-0.112146 -0.208256,-0.206706 -0.159349,-0.1703432 -0.303751,-0.3539912 -0.4408,-0.5426032 z"
       inkscape:export-filename="simodin_v2.png"
       inkscape:export-xdpi="96"
       inkscape:export-ydpi="96" />
    <path
       id="text4"
       style="font-style:normal;font-variant:normal;font-weight:normal;font-stretch:normal;font-size:14.1111px;font-family:osifont;-inkscape-font-specification:osifont;fill:#000000;stroke-width:0.264583"
       d="m 4.4725356,8.2452058 c -0.646396,0 -1.218454,0.168401 -1.718758,0.498678 0.01958,0.03275 0.04028,0.06476 0.06046,0.09715 0.02376,0.03814 0.02383,0.039 0.04651,0.07751 0.0082,0.01389 0.01599,0.02749 0.02429,0.04134 0.021,0.03521 0.03129,0.05174 0.05323,0.08682 0.0231,0.03693 0.0304,0.04847 0.05323,0.08527 0.0085,0.01372 0.01692,0.02757 0.02532,0.04134 0.02223,0.03691 0.04524,0.07331 0.0677,0.110071 0.0062,0.01014 0.0124,0.02037 0.0186,0.03049 0.03711,0.06027 -0.0043,-0.0078 0.03669,0.06046 0.02325,0.0388 0.04584,0.07817 0.0677,0.117823 0.03315,0.04051 0.06566,0.08158 0.101286,0.1198892 0.354494,-0.2296722 0.714628,-0.3467492 1.081071,-0.3467492 0.54201,0 1.028591,0.174397 1.460376,0.5234822 0.482295,0.390444 0.72347,0.921007 0.72347,1.591634 v 4.18941 c 0,0.610911 -0.254938,1.145723 -0.764812,1.605069 -0.362865,0.326118 -0.833558,0.489376 -1.412316,0.489376 -0.496093,0 -0.943957,-0.177039 -1.343588,-0.530717 -0.459328,-0.413411 -0.688847,-0.868182 -0.688847,-1.364257 v -2.75177 c -0.07769,-0.04914 -0.155393,-0.09846 -0.23151,-0.149862 -0.153308,-0.102057 -0.305538,-0.207112 -0.443384,-0.329696 -0.112755,-0.105582 -0.225203,-0.211044 -0.333829,-0.32091 -0.0013,-0.0014 -0.0028,-0.0027 -0.0041,-0.0041 v 3.522265 c 0,0.785481 0.310077,1.476627 0.930176,2.073775 0.610929,0.583351 1.324888,0.874882 2.142505,0.874882 0.868146,0 1.603308,-0.291531 2.205033,-0.874882 0.629303,-0.61093 0.944129,-1.366746 0.944129,-2.267044 V 11.33239 c 0,-0.831399 -0.316967,-1.561795 -0.950846,-2.1910812 -0.601743,-0.597149 -1.318342,-0.89607 -2.14974,-0.89607 z m -2.138371,0.826306 c -0.02699,0.02514 -0.05413,0.0502 -0.08062,0.07648 -0.03311,0.03285 -0.06406,0.06631 -0.09509,0.09973 0.01052,0.005 0.02084,0.0097 0.03204,0.01499 0.0047,-6.48e-4 0.0093,-0.0015 0.01395,-0.0021 0.04896,-0.0061 0.09795,-0.01399 0.147278,-0.01499 0.0211,-4.39e-4 0.03692,1.8e-5 0.05374,5.17e-4 -0.003,-0.0069 -0.0063,-0.01372 -0.0093,-0.02067 -0.004,-0.0097 -0.04821,-0.117411 -0.05271,-0.129191 -8.55e-4,-0.0022 -0.006,-0.01609 -0.0093,-0.02481 z m 0.0026,0.410828 c -0.02191,0.0018 -0.04379,0.0039 -0.06563,0.0067 0.01663,0.01834 0.03302,0.0368 0.05013,0.05478 0.04522,0.04753 0.0605,0.06076 0.106453,0.1043862 0.03693,0.03401 0.0765,0.06508 0.117823,0.09353 0.02157,0.01486 0.03702,0.02546 0.05943,0.03824 0.008,0.0046 0.0166,0.0085 0.0248,0.01292 0.02939,0.0142 0.05875,0.02822 0.08888,0.04082 -0.01773,-0.02835 -0.03591,-0.05666 -0.05323,-0.08527 -0.01508,-0.02582 -0.03051,-0.05111 -0.04548,-0.077 -0.01201,-0.01064 -0.02369,-0.02142 -0.03462,-0.03101 -0.02281,-0.01712 -0.05884,-0.04415 -0.08217,-0.05995 -0.01454,-0.0099 -0.02948,-0.01922 -0.04444,-0.02842 -0.02783,-0.01712 -0.07349,-0.04354 -0.101802,-0.05891 -0.0067,-0.0036 -0.0134,-0.0073 -0.02015,-0.01085 z m -0.223759,0.02894 c -0.01672,0.0028 -0.03349,0.0051 -0.05013,0.0083 0.01481,0.02788 0.02939,0.05637 0.05374,0.1069702 0.03581,0.07439 0.07607,0.164575 0.108004,0.240812 0.01605,0.03834 0.03097,0.07721 0.04651,0.115756 0.03624,0.09281 0.07063,0.186219 0.10542,0.279569 0.0377,0.101196 0.009,0.02341 0.03824,0.10387 0.04452,0.12257 -0.07952,0.167511 -0.124023,0.04496 -0.0283,-0.07803 -7.82e-4,-0.0023 -0.03824,-0.102836 -0.03436,-0.09218 -0.0676,-0.184819 -0.103352,-0.276469 -0.0151,-0.0375 -0.02988,-0.07535 -0.04548,-0.112654 -0.03098,-0.07405 -0.07017,-0.161815 -0.104903,-0.234095 -0.03122,-0.06496 -0.0473,-0.09597 -0.0677,-0.1333252 -0.01108,0.0032 -0.02259,0.0048 -0.03359,0.0083 -0.02606,0.03536 -0.04869,0.07159 -0.07286,0.1074872 0.0097,0.01692 0.01928,0.03404 0.02842,0.05116 0.03161,0.05916 0.06762,0.133093 0.09715,0.192753 0.03305,0.06789 0.06516,0.134435 0.0987,0.202055 0.02331,0.04701 0.06084,0.121455 0.0863,0.168465 0.01111,0.02053 0.02315,0.04065 0.03462,0.06098 0.0027,0.0048 0.0051,0.0097 0.0078,0.01447 6.81e-4,10e-4 0.0014,0.0021 0.0021,0.0031 0.01911,0.02913 0.03786,0.05864 0.05684,0.08785 0.0081,0.0125 0.01629,0.02462 0.02429,0.03721 0.01047,0.01651 0.02692,0.04209 0.03462,0.06098 0.0034,0.0085 0.0056,0.01757 0.0083,0.02635 0.02961,0.0099 0.05997,0.01827 0.0894,0.02842 0.02748,0.01016 0.05465,0.02131 0.08165,0.03256 0.07709,-0.235201 0.195883,-0.4437 0.356567,-0.625293 -3.46e-4,-5.17e-4 -10e-4,-4.5e-4 -10e-4,-0.0016 -0.0065,-0.0016 -0.01323,-0.0034 -0.01809,-0.0047 -0.0295,-0.0074 -0.05923,-0.01489 -0.08785,-0.02532 -0.01091,-0.0042 -0.04288,-0.01585 -0.05323,-0.02015 -0.0354,-0.01459 -0.07003,-0.03122 -0.104386,-0.04806 -0.01009,-0.0055 -0.02007,-0.01084 -0.02997,-0.01654 -0.02453,-0.01413 -0.04433,-0.0272 -0.0677,-0.04341 -0.04635,-0.03215 -0.09083,-0.06711 -0.132292,-0.10542 -0.0494,-0.04699 -0.06397,-0.05942 -0.112655,-0.110588 -0.02125,-0.02233 -0.04169,-0.0455 -0.06253,-0.06821 -0.01635,-0.01781 -0.03235,-0.03586 -0.04858,-0.05374 z m 0.748275,0.2294432 c -1.3e-4,9.91e-4 -3.69e-4,0.0015 -5.17e-4,0.0026 0.0011,0.0015 0.002,0.0031 0.0031,0.0047 -2.63e-4,-10e-4 -0.0016,-0.0045 -0.0026,-0.0072 z m 0.05013,0.08113 c 1.06e-4,1.75e-4 4.02e-4,10e-4 5.17e-4,10e-4 3.1e-5,-3.43e-4 -3e-5,-10e-4 0,-10e-4 z m -0.706934,2.775542 c 0.02479,0.0168 0.04898,0.03461 0.0739,0.05116 0.02829,0.0191 0.05716,0.03722 0.08578,0.05581 v -0.0078 c -0.05377,-0.03221 -0.106891,-0.06546 -0.15968,-0.09922 z" />
    <path
       d="m 10.35228,11.92216 v 6.146045 q 0,0.571886 -0.4960934,0.571886 -0.5167639,0 -0.5167639,-0.558105 V 11.92905 q 0,-0.564995 0.5098737,-0.564995 0.5029836,0 0.5029836,0.558105 z M 9.3600933,8.7182232 q 0,-0.482313 0.4754228,-0.482313 0.5098739,0 0.5098739,0.5167639 v 0.4478621 q 0,0.5374345 -0.5236543,0.5374345 -0.4616424,0 -0.4616424,-0.5029836 z m 9.4257737,-0.186035 q 0.165365,-0.261827 0.440972,-0.261827 0.523654,0 0.523654,0.5512148 v 9.170837 q 0,0.682128 -0.509874,0.682128 -0.509873,0 -0.509873,-0.682128 v -7.393169 l -2.149738,3.500214 q -0.261827,0.434082 -0.523654,0.434082 -0.261827,0 -0.509874,-0.420301 l -2.108397,-3.500215 v 7.41384 q 0,0.647677 -0.530544,0.647677 -0.489203,0 -0.489203,-0.633897 V 8.8146858 q 0,-0.5443246 0.523654,-0.5443246 0.268717,0 0.427191,0.2411564 l 2.659612,4.4855114 z m 4.43039,4.2030128 q -0.551215,0.406521 -0.551215,1.260904 v 2.115287 q 0,0.778591 0.75792,1.254014 0.440972,0.275608 0.881944,0.275608 0.440972,0 0.888834,-0.303169 0.675238,-0.454752 0.675238,-1.440048 v -1.756998 q 0,-0.875053 -0.516764,-1.343586 -0.496093,-0.454752 -1.047308,-0.454752 -0.551215,0 -1.088649,0.39274 z m 0.964626,-1.384927 q 1.157551,0 1.887911,0.72347 0.771701,0.76481 0.771701,1.626083 v 2.397785 q 0,1.157551 -0.833713,1.887911 -0.723469,0.633897 -1.750107,0.633897 -1.09554,0 -1.743217,-0.661458 -0.833712,-0.847493 -0.833712,-1.894801 V 13.81007 q 0,-1.109319 0.957735,-1.88791 0.702799,-0.571886 1.543402,-0.571886 z m 6.621469,1.012857 q -1.192002,0 -1.192002,1.322916 0,0 0,2.714733 0,1.233343 1.267794,1.233343 0,0 1.922362,0 0,0 0,-5.270992 z m 1.998154,-3.5966765 q 0,-0.5305443 0.502983,-0.5305443 0.502984,0 0.502984,0.5649952 v 9.2259586 q 0,0.647677 -0.654568,0.647677 h -2.390894 q -0.895724,0 -1.453829,-0.558105 -0.675238,-0.675238 -0.675238,-1.48828 v -3.286618 q 0,-0.668348 0.475422,-1.247124 0.599447,-0.730359 1.688096,-0.730359 h 2.005044 z m 4.12033,9.2466295 q 0,0.661457 -0.523654,0.661457 -0.523654,0 -0.523654,-0.647677 V 8.8904779 q 0,-0.6201167 0.523654,-0.6201167 0.523654,0 0.523654,0.6407872 z m 1.929251,-6.146046 q 0,-0.516764 0.502984,-0.516764 0,0 2.652721,0 0.833712,0 1.508951,0.668348 0.509873,0.502984 0.509873,1.322916 0,0 0,4.623314 0,0.661458 -0.482313,0.661458 -0.523654,0 -0.523654,-0.675238 0,0 0,-4.526852 0,-0.502984 -0.268717,-0.74414 -0.323839,-0.303168 -0.709689,-0.303168 0,0 -2.21864,0 v 5.663732 q 0,0.578776 -0.482313,0.578776 -0.489203,0 -0.489203,-0.571885 z"
       id="text1"
       style="font-size:14.1111px;font-family:osifont;-inkscape-font-specification:osifont;stroke-width:0.001"
       aria-label="iModIn" />
  </g>
</svg>
